<svg xmlns="http://www.w3.org/2000/svg" width="201.111" height="50.818" viewBox="0 0 201.111 50.818">
  <g id="Group_59676" data-name="Group 59676" transform="translate(19008 -8649.535)">
    <g id="Group_55619" data-name="Group 55619" transform="translate(-19008 8649.536)">
      <g id="Group_52292" data-name="Group 52292" transform="translate(0 0)">
        <g id="dimaag-logo-sideways-black" transform="translate(79.111 8.443)">
          <text id="DIMAAG" transform="translate(0 30)" fill="#fff" font-size="28" font-family="LEMONMILK-Regular, LEMON MILK" letter-spacing="0.03em"><tspan x="0" y="0">DIMA</tspan><tspan y="0" letter-spacing="-0.05em">A</tspan><tspan y="0">G</tspan></text>
        </g>
        <path id="Path_63339" data-name="Path 63339" d="M22.871,16.305V50.591L0,27.72c4.255-4.255,8.655-8.652,13.121-13.111,0,2.68.021,5.426-.028,8.168-.007.318-.356.673-.622.936-1.119,1.116-2.262,2.2-3.481,3.381,2.5,2.711,4.9,5.3,7.522,8.151V.128c5.944,5.944,11.65,11.653,17.511,17.514L51.655,0V35.256c2.639-2.825,5.036-5.384,7.429-7.947a2.2,2.2,0,0,0-.169-.214c-1.236-1.254-3-2.307-3.568-3.813-.629-1.658-.169-3.734-.18-5.626,0-.991,0-1.986,0-2.936q6.683,6.683,13.2,13.19Q57.091,39.183,45.452,50.819V16.057L34.341,27.178c-3.879-3.886-7.495-7.5-11.107-11.121-.121.083-.242.166-.363.245Z" transform="translate(0 0)" fill="#fff"/>
      </g>
    </g>
  </g>
</svg>
